<svg width="109" height="108" viewBox="0 0 109 108" fill="none" xmlns="http://www.w3.org/2000/svg">
<path d="M31.11 81.34L31.11 36.93C31.11 35.367 29.843 34.1 28.28 34.1L15.53 34.1C13.967 34.1 12.7 35.367 12.7 36.93L12.7 81.34C12.7 82.903 13.967 84.17 15.53 84.17L28.28 84.17C29.843 84.17 31.11 82.903 31.11 81.34Z" fill="white"/>
<path d="M31.11 78.87C35.73 78.87 40.33 79.66 44.86 80.49C52.51 81.9 60.87 84.94 69 85.41C73.76 85.69 78.44 85.09 82.85 82.77C90.55 78.72 95.8 70.64 95.8 61.34C95.8 47.98 84.97 37.14 71.6 37.14C65.46 37.14 59.88 39.44 55.6 43.19C70.48 29.21 64.09 23.79 64.09 23.79C61.59 21.29 59.08 21.7 57.2 22.75C54.29 24.37 52.06 27.42 49.43 29.5C45.41 32.67 39.17 36.88 32.38 38.82L31.02 38.82L31.1 78.87L31.11 78.87Z" fill="#E72226"/>
<path d="M71.28 74.8C71.28 73.67 72.2 72.76 73.32 72.76C75.56 72.76 77.7 71.82 79.18 70.17C79.94 69.33 81.23 69.26 82.07 70.02C82.91 70.78 82.97 72.07 82.22 72.91C79.96 75.42 76.72 76.85 73.32 76.85C72.19 76.85 71.28 75.94 71.28 74.81L71.28 74.8Z" fill="#302E30"/>
<path d="M10.65 78.37L10.65 39.89C10.65 35.57 14.17 32.05 18.49 32.05L25.31 32.05C29.63 32.05 33.15 35.57 33.15 39.89L33.15 78.37C33.15 82.69 29.63 86.21 25.31 86.21L18.49 86.21C14.17 86.21 10.65 82.69 10.65 78.37ZM29.06 39.89C29.06 37.82 27.38 36.14 25.31 36.14L18.49 36.14C16.42 36.14 14.74 37.82 14.74 39.89L14.74 78.37C14.74 80.44 16.42 82.12 18.49 82.12L25.31 82.12C27.38 82.12 29.06 80.44 29.06 78.37L29.06 39.89Z" fill="#302E30"/>
<path d="M28.99 39.11C28.99 38.57 29.2 38.05 29.59 37.67C29.97 37.28 30.49 37.07 31.04 37.07L32.1 37.07C38.47 35.19 44.35 31.21 48.18 28.19C49.12 27.45 50.03 26.54 50.99 25.59C52.57 24.01 54.21 22.38 56.23 21.26C59.52 19.43 62.83 19.92 65.55 22.64C65.63 22.7 67.43 24.31 67.51 27.63C67.57 30.28 66.56 33.2 64.49 36.39C66.79 35.74 69.19 35.4 71.61 35.4C86.08 35.4 97.85 47.17 97.85 61.64C97.85 71.42 92.47 80.32 83.81 84.88C79.5 87.15 74.62 88.09 68.89 87.75C63.55 87.44 58.2 86.08 53.02 84.77C50.04 84.02 47.23 83.3 44.49 82.8C39.94 81.96 35.49 81.21 31.11 81.21C29.98 81.21 29.07 80.3 29.07 79.17L28.99 39.12L28.99 39.11ZM63.42 27.87C63.42 26.31 62.75 25.63 62.72 25.6C61.24 24.12 59.87 23.91 58.2 24.83C56.68 25.67 55.31 27.04 53.86 28.48C52.86 29.48 51.83 30.5 50.7 31.39C46.55 34.66 40.14 38.98 33.07 41.03L33.14 77.16C37.17 77.34 41.16 78.02 45.22 78.77C48.09 79.3 51.1 80.06 54.01 80.8C59 82.07 64.16 83.37 69.11 83.66C74.08 83.95 78.26 83.16 81.89 81.25C89.2 77.4 93.74 69.88 93.74 61.63C93.74 49.41 83.8 39.48 71.59 39.48C66.22 39.48 61.02 41.45 56.94 45.02C56.1 45.75 54.83 45.68 54.08 44.86C53.33 44.04 53.38 42.76 54.19 42C62.14 34.53 63.37 29.99 63.4 27.95L63.4 27.88L63.42 27.87Z" fill="#302E30"/>
</svg>
