<?xml version="1.0" encoding="utf-8"?>
<!-- Generator: Adobe Illustrator 25.0.0, SVG Export Plug-In . SVG Version: 6.00 Build 0)  -->
<svg version="1.1" id="Capa_1" xmlns="http://www.w3.org/2000/svg" xmlns:xlink="http://www.w3.org/1999/xlink" x="0px" y="0px"
	 viewBox="0 0 70.9 70.9" style="enable-background:new 0 0 70.9 70.9;" xml:space="preserve">
<style type="text/css">
	.st0{fill:#50ABF1;}
	.st1{fill:#FFFFFF;}
</style>
<g>
	<rect y="0" class="st0" width="70.9" height="70.9"/>
	<path class="st1" d="M9.4,52.5c4.7,3,10.3,4.7,16.3,4.7c16.8,0,30.5-13.7,30.5-30.5c0-0.4,0-0.8,0-1.3c0.6-0.5,4.4-3.5,5.3-5.4
		c0,0-3.1,1.3-6.1,1.6c0,0,0,0,0,0c0,0,0,0,0,0c0.3-0.2,4.1-2.8,4.7-5.9c0,0-2.2,1.2-5.2,2.2c-0.5,0.2-1,0.3-1.6,0.5
		c-2-2.1-4.7-3.4-7.8-3.4c-5.9,0-10.7,4.8-10.7,10.7c0,0.8,0.1,1.6,0.3,2.4c-0.8,0-13.4-0.7-22-11.1c0,0-5.1,7,3,14.2
		c0,0-2.5-0.1-4.6-1.4c0,0-0.8,8.5,8.5,10.6c0,0-1.8,0.7-4.7,0.2c0,0,1.6,6.8,9.8,7.5C25.1,48,18.6,53.9,9.4,52.5L9.4,52.5z"/>
</g>
</svg>
